<?xml version="1.0" encoding="UTF-8"?>
<svg version="1.1" viewBox="0 0 39 39" xmlns="http://www.w3.org/2000/svg">
<title>book</title>
<desc>Created with Sketch.</desc>
<g fill="none" fill-rule="evenodd">
<g transform="translate(-292 -560)" fill="#000" fill-rule="nonzero">
<g transform="translate(210 410)">
<g transform="translate(82 150)">
<rect id="Rectangle" x="12" y="33" width="26" height="2"/>
<path d="m38.071 0h-32.5c-3.0758 0.0030469-5.5684 2.4957-5.5714 5.5714v27.929h1.8571v-27.929c0-2.0513 1.663-3.7143 3.7143-3.7143h31.571v32.5h1.8571v-33.429c0-0.51275-0.41577-0.92851-0.9286-0.92851z"/>
<path d="m38.071 28h-32.5c-3.077 0-5.5714 2.4625-5.5714 5.5s2.4944 5.5 5.5714 5.5h32.5c0.51283 0 0.9286-0.41044 0.9286-0.9167v-9.1666c0-0.50626-0.41577-0.9167-0.9286-0.9167zm-0.92851 9.1667h-31.571c-2.0513 0-3.7143-1.6416-3.7143-3.6667 0-2.025 1.663-3.6667 3.7143-3.6667h31.571v7.3334z"/>
<polygon id="Rectangle" points="5 1 7 1 7 28.971 5 28.971"/>
<rect id="Rectangle" x="11" y="11" width="22" height="2"/>
<rect id="a" x="15" y="15" width="11" height="2"/>
<rect x="8" y="33" width="2" height="2"/>
</g>
</g>
</g>
</g>
</svg>
