<?xml version="1.0" encoding="UTF-8"?>
<svg version="1.1" viewBox="0 0 39 39" xmlns="http://www.w3.org/2000/svg">
<title>clock</title>
<desc>Created with Sketch.</desc>
<g fill="none" fill-rule="evenodd">
<g transform="translate(-516 -494)" fill="#000" fill-rule="nonzero">
<g transform="translate(516 494)">
<path d="m19.5 0c-10.737 0-19.5 8.7635-19.5 19.5 0 10.737 8.7635 19.5 19.5 19.5 10.737 0 19.5-8.7636 19.5-19.5 0-10.737-8.7635-19.5-19.5-19.5zm0 36.715c-9.4923 0-17.215-7.7225-17.215-17.215s7.7225-17.215 17.215-17.215 17.215 7.7225 17.215 17.215-7.7225 17.215-17.215 17.215z"/>
<circle id="b" cx="10" cy="29" r="1"/>
<circle cx="29" cy="10" r="1"/>
<path id="Path" d="m9.2929 9.2929c-0.39053 0.39053-0.39053 1.0237 0 1.4142s1.0237 0.39053 1.4142 0 0.39053-1.0237 0-1.4142c-0.39047-0.39053-1.0237-0.39053-1.4142 0z"/>
<path id="Path" d="m28.293 28.293c-0.39053 0.39053-0.39053 1.0237 0 1.4142s1.0237 0.39053 1.4142 0 0.39053-1.0237 0-1.4142-1.0237-0.39053-1.4142 0z"/>
<path id="Path" d="m20 9c0.55227 0 1-0.55967 1-1.25v-2.5c0-0.69033-0.44773-1.25-1-1.25s-1 0.55967-1 1.25v2.5c0 0.69033 0.44773 1.25 1 1.25z"/>
<path id="Path" d="m20 30c-0.55227 0-1 0.55967-1 1.25v2.5c0 0.69033 0.44773 1.25 1 1.25s1-0.55967 1-1.25v-2.5c0-0.69033-0.44773-1.25-1-1.25z"/>
<path id="Path" d="m9 20c0-0.55227-0.55967-1-1.25-1h-2.5c-0.69033 0-1.25 0.44773-1.25 1s0.55967 1 1.25 1h2.5c0.69033 0 1.25-0.44773 1.25-1z"/>
<path id="a" d="m30 20c0 0.55227 0.55967 1 1.25 1h2.5c0.69033 0 1.25-0.44773 1.25-1s-0.55967-1-1.25-1h-2.5c-0.69033 0-1.25 0.44773-1.25 1z"/>
<path d="m20.25 19.527v-6.3838c0-0.63116-0.5037-1.1429-1.125-1.1429s-1.125 0.51169-1.125 1.1429v6.8571c0 0.30308 0.11857 0.59375 0.32955 0.80815l6.75 6.8571c0.43927 0.44625 1.1516 0.44632 1.591 0 0.43935-0.44632 0.43935-1.1699 0-1.6162l-6.4205-6.5224z"/>
</g>
</g>
</g>
</svg>
