<svg xmlns="http://www.w3.org/2000/svg" xmlns:xlink="http://www.w3.org/1999/xlink" width="101" height="101" viewBox="0 0 101 101">
  <defs>
    <linearGradient id="linear-gradient" x1="0.348" y1="0.16" x2="0.792" y2="0.907" gradientUnits="objectBoundingBox">
      <stop offset="0" stop-color="#fff" stop-opacity="0.4"/>
      <stop offset="1" stop-color="#fff" stop-opacity="0.2"/>
    </linearGradient>
    <filter id="Path" x="0" y="0" width="101" height="101" filterUnits="userSpaceOnUse">
      <feOffset input="SourceAlpha"/>
      <feGaussianBlur stdDeviation="12.5" result="blur"/>
      <feFlood flood-color="#000219" flood-opacity="0.055"/>
      <feComposite operator="in" in2="blur"/>
      <feComposite in="SourceGraphic"/>
    </filter>
    <filter id="Path-2" x="0" y="0" width="101" height="101" filterUnits="userSpaceOnUse">
      <feOffset input="SourceAlpha"/>
      <feGaussianBlur stdDeviation="12.5" result="blur-2"/>
      <feFlood flood-color="#000219" flood-opacity="0.055"/>
      <feComposite operator="in" in2="blur-2"/>
      <feComposite in="SourceGraphic"/>
    </filter>
    <filter id="Path-3" x="0" y="0" width="101" height="101" filterUnits="userSpaceOnUse">
      <feOffset input="SourceAlpha"/>
      <feGaussianBlur stdDeviation="12.5" result="blur-3"/>
      <feFlood flood-color="#000219" flood-opacity="0.055"/>
      <feComposite operator="in" in2="blur-3"/>
      <feComposite in="SourceGraphic"/>
    </filter>
  </defs>
  <g id="Facebook" transform="translate(37.5 37.5)">
    <g id="facebook-2" data-name="facebook">
      <g transform="matrix(1, 0, 0, 1, -37.5, -37.5)" filter="url(#Path)">
        <path id="Path-4" data-name="Path" d="M26,13A13,13,0,1,0,13,26c.076,0,.152,0,.229-.005V15.879H10.436V12.624h2.793v-2.4A3.911,3.911,0,0,1,17.4,5.936a22.688,22.688,0,0,1,2.5.127v2.9H18.2c-1.346,0-1.61.64-1.61,1.579v2.072h3.225l-.421,3.255h-2.8V25.5A13,13,0,0,0,26,13Z" transform="translate(37.5 37.5)" fill="url(#linear-gradient)"/>
      </g>
    </g>
    <g id="facebook-3" data-name="facebook">
      <g transform="matrix(1, 0, 0, 1, -37.5, -37.5)" filter="url(#Path-2)">
        <path id="Path-5" data-name="Path" d="M26,13A13,13,0,1,0,13,26c.076,0,.152,0,.229-.005V15.879H10.436V12.624h2.793v-2.4A3.911,3.911,0,0,1,17.4,5.936a22.688,22.688,0,0,1,2.5.127v2.9H18.2c-1.346,0-1.61.64-1.61,1.579v2.072h3.225l-.421,3.255h-2.8V25.5A13,13,0,0,0,26,13Z" transform="translate(37.5 37.5)" fill="url(#linear-gradient)"/>
      </g>
    </g>
    <g id="facebook-4" data-name="facebook">
      <g transform="matrix(1, 0, 0, 1, -37.5, -37.5)" filter="url(#Path-3)">
        <path id="Path-6" data-name="Path" d="M26,13A13,13,0,1,0,13,26c.076,0,.152,0,.229-.005V15.879H10.436V12.624h2.793v-2.4A3.911,3.911,0,0,1,17.4,5.936a22.688,22.688,0,0,1,2.5.127v2.9H18.2c-1.346,0-1.61.64-1.61,1.579v2.072h3.225l-.421,3.255h-2.8V25.5A13,13,0,0,0,26,13Z" transform="translate(37.5 37.5)" fill="url(#linear-gradient)"/>
      </g>
    </g>
  </g>
</svg>
