<svg xmlns="http://www.w3.org/2000/svg" xmlns:xlink="http://www.w3.org/1999/xlink" width="101" height="101" viewBox="0 0 101 101">
  <defs>
    <linearGradient id="linear-gradient" x1="0.348" y1="0.16" x2="0.792" y2="0.907" gradientUnits="objectBoundingBox">
      <stop offset="0" stop-color="#fff" stop-opacity="0.4"/>
      <stop offset="1" stop-color="#fff" stop-opacity="0.2"/>
    </linearGradient>
    <filter id="Path" x="10.593" y="10.593" width="80.136" height="80.136" filterUnits="userSpaceOnUse">
      <feOffset input="SourceAlpha"/>
      <feGaussianBlur stdDeviation="12.5" result="blur"/>
      <feFlood flood-color="#000219" flood-opacity="0.055"/>
      <feComposite operator="in" in2="blur"/>
      <feComposite in="SourceGraphic"/>
    </filter>
    <filter id="Shape" x="7.062" y="7.062" width="87.198" height="87.198" filterUnits="userSpaceOnUse">
      <feOffset input="SourceAlpha"/>
      <feGaussianBlur stdDeviation="12.5" result="blur-2"/>
      <feFlood flood-color="#000219" flood-opacity="0.055"/>
      <feComposite operator="in" in2="blur-2"/>
      <feComposite in="SourceGraphic"/>
    </filter>
    <filter id="Shape-2" x="0" y="0" width="101" height="101" filterUnits="userSpaceOnUse">
      <feOffset input="SourceAlpha"/>
      <feGaussianBlur stdDeviation="12.5" result="blur-3"/>
      <feFlood flood-color="#000219" flood-opacity="0.055"/>
      <feComposite operator="in" in2="blur-3"/>
      <feComposite in="SourceGraphic"/>
    </filter>
    <filter id="Path-2" x="10.593" y="10.593" width="80.136" height="80.136" filterUnits="userSpaceOnUse">
      <feOffset input="SourceAlpha"/>
      <feGaussianBlur stdDeviation="12.5" result="blur-4"/>
      <feFlood flood-color="#000219" flood-opacity="0.055"/>
      <feComposite operator="in" in2="blur-4"/>
      <feComposite in="SourceGraphic"/>
    </filter>
    <filter id="Shape-3" x="7.062" y="7.062" width="87.198" height="87.198" filterUnits="userSpaceOnUse">
      <feOffset input="SourceAlpha"/>
      <feGaussianBlur stdDeviation="12.5" result="blur-5"/>
      <feFlood flood-color="#000219" flood-opacity="0.055"/>
      <feComposite operator="in" in2="blur-5"/>
      <feComposite in="SourceGraphic"/>
    </filter>
    <filter id="Shape-4" x="0" y="0" width="101" height="101" filterUnits="userSpaceOnUse">
      <feOffset input="SourceAlpha"/>
      <feGaussianBlur stdDeviation="12.5" result="blur-6"/>
      <feFlood flood-color="#000219" flood-opacity="0.055"/>
      <feComposite operator="in" in2="blur-6"/>
      <feComposite in="SourceGraphic"/>
    </filter>
    <filter id="Path-3" x="10.593" y="10.593" width="80.136" height="80.136" filterUnits="userSpaceOnUse">
      <feOffset input="SourceAlpha"/>
      <feGaussianBlur stdDeviation="12.5" result="blur-7"/>
      <feFlood flood-color="#000219" flood-opacity="0.055"/>
      <feComposite operator="in" in2="blur-7"/>
      <feComposite in="SourceGraphic"/>
    </filter>
    <filter id="Shape-5" x="7.062" y="7.062" width="87.198" height="87.198" filterUnits="userSpaceOnUse">
      <feOffset input="SourceAlpha"/>
      <feGaussianBlur stdDeviation="12.5" result="blur-8"/>
      <feFlood flood-color="#000219" flood-opacity="0.055"/>
      <feComposite operator="in" in2="blur-8"/>
      <feComposite in="SourceGraphic"/>
    </filter>
    <filter id="Shape-6" x="0" y="0" width="101" height="101" filterUnits="userSpaceOnUse">
      <feOffset input="SourceAlpha"/>
      <feGaussianBlur stdDeviation="12.5" result="blur-9"/>
      <feFlood flood-color="#000219" flood-opacity="0.055"/>
      <feComposite operator="in" in2="blur-9"/>
      <feComposite in="SourceGraphic"/>
    </filter>
  </defs>
  <g id="Instagram" transform="translate(37.5 37.5)">
    <g id="instagram-2" data-name="instagram">
      <g transform="matrix(1, 0, 0, 1, -37.5, -37.5)" filter="url(#Path)">
        <path id="Path-4" data-name="Path" d="M5.136,2.568A2.568,2.568,0,1,1,2.568,0,2.568,2.568,0,0,1,5.136,2.568Z" transform="translate(48.09 48.09)" fill="url(#linear-gradient)"/>
      </g>
      <g transform="matrix(1, 0, 0, 1, -37.5, -37.5)" filter="url(#Shape)">
        <path id="Shape-7" data-name="Shape" d="M6.1,12.2c-1.971,0-2.209-.008-3.006-.043A4.138,4.138,0,0,1,1.711,11.9a2.32,2.32,0,0,1-.855-.556A2.322,2.322,0,0,1,.3,10.486,4.121,4.121,0,0,1,.043,9.105C.008,8.308,0,8.071,0,6.1S.008,3.89.043,3.092A4.138,4.138,0,0,1,.3,1.711,2.32,2.32,0,0,1,.856.856,2.322,2.322,0,0,1,1.712.3,4.121,4.121,0,0,1,3.092.043C3.87.008,4.1,0,6.1,0,8.071,0,8.308.008,9.105.043A4.121,4.121,0,0,1,10.486.3a2.322,2.322,0,0,1,.856.556,2.325,2.325,0,0,1,.556.855,4.138,4.138,0,0,1,.256,1.382c.036.8.043,1.035.043,3.007s-.008,2.209-.043,3.006a4.121,4.121,0,0,1-.256,1.381A2.468,2.468,0,0,1,10.486,11.9a4.124,4.124,0,0,1-1.381.256C8.308,12.19,8.071,12.2,6.1,12.2Zm0-9.919A3.82,3.82,0,1,0,9.919,6.1,3.824,3.824,0,0,0,6.1,2.279ZM10.07,1.235a.893.893,0,1,0,.893.893A.894.894,0,0,0,10.07,1.235Z" transform="translate(44.56 44.56)" fill="url(#linear-gradient)"/>
      </g>
      <g transform="matrix(1, 0, 0, 1, -37.5, -37.5)" filter="url(#Shape-2)">
        <path id="Shape-8" data-name="Shape" d="M13,26A13,13,0,0,1,3.808,3.808,13,13,0,1,1,22.192,22.192,12.915,12.915,0,0,1,13,26ZM13,5.535c-2.006,0-2.273.009-3.077.045a5.538,5.538,0,0,0-1.813.347A3.816,3.816,0,0,0,5.927,8.11,5.518,5.518,0,0,0,5.58,9.923c-.036.8-.045,1.071-.045,3.077s.009,2.274.045,3.078a5.526,5.526,0,0,0,.347,1.812,3.683,3.683,0,0,0,.86,1.322,3.635,3.635,0,0,0,1.323.861,5.526,5.526,0,0,0,1.812.347c.805.036,1.072.045,3.078.045s2.273-.009,3.077-.045a5.526,5.526,0,0,0,1.812-.347,3.823,3.823,0,0,0,2.183-2.183,5.5,5.5,0,0,0,.347-1.812c.036-.8.045-1.071.045-3.078s-.009-2.273-.045-3.077a5.515,5.515,0,0,0-.347-1.813,3.7,3.7,0,0,0-.86-1.322,3.649,3.649,0,0,0-1.323-.861,5.552,5.552,0,0,0-1.812-.346C15.273,5.544,15.007,5.535,13,5.535Z" transform="translate(37.5 37.5)" fill="url(#linear-gradient)"/>
      </g>
    </g>
    <g id="instagram-3" data-name="instagram">
      <g transform="matrix(1, 0, 0, 1, -37.5, -37.5)" filter="url(#Path-2)">
        <path id="Path-5" data-name="Path" d="M5.136,2.568A2.568,2.568,0,1,1,2.568,0,2.568,2.568,0,0,1,5.136,2.568Z" transform="translate(48.09 48.09)" fill="url(#linear-gradient)"/>
      </g>
      <g transform="matrix(1, 0, 0, 1, -37.5, -37.5)" filter="url(#Shape-3)">
        <path id="Shape-9" data-name="Shape" d="M6.1,12.2c-1.971,0-2.209-.008-3.006-.043A4.138,4.138,0,0,1,1.711,11.9a2.32,2.32,0,0,1-.855-.556A2.322,2.322,0,0,1,.3,10.486,4.121,4.121,0,0,1,.043,9.105C.008,8.308,0,8.071,0,6.1S.008,3.89.043,3.092A4.138,4.138,0,0,1,.3,1.711,2.32,2.32,0,0,1,.856.856,2.322,2.322,0,0,1,1.712.3,4.121,4.121,0,0,1,3.092.043C3.87.008,4.1,0,6.1,0,8.071,0,8.308.008,9.105.043A4.121,4.121,0,0,1,10.486.3a2.322,2.322,0,0,1,.856.556,2.325,2.325,0,0,1,.556.855,4.138,4.138,0,0,1,.256,1.382c.036.8.043,1.035.043,3.007s-.008,2.209-.043,3.006a4.121,4.121,0,0,1-.256,1.381A2.468,2.468,0,0,1,10.486,11.9a4.124,4.124,0,0,1-1.381.256C8.308,12.19,8.071,12.2,6.1,12.2Zm0-9.919A3.82,3.82,0,1,0,9.919,6.1,3.824,3.824,0,0,0,6.1,2.279ZM10.07,1.235a.893.893,0,1,0,.893.893A.894.894,0,0,0,10.07,1.235Z" transform="translate(44.56 44.56)" fill="url(#linear-gradient)"/>
      </g>
      <g transform="matrix(1, 0, 0, 1, -37.5, -37.5)" filter="url(#Shape-4)">
        <path id="Shape-10" data-name="Shape" d="M13,26A13,13,0,0,1,3.808,3.808,13,13,0,1,1,22.192,22.192,12.915,12.915,0,0,1,13,26ZM13,5.535c-2.006,0-2.273.009-3.077.045a5.538,5.538,0,0,0-1.813.347A3.816,3.816,0,0,0,5.927,8.11,5.518,5.518,0,0,0,5.58,9.923c-.036.8-.045,1.071-.045,3.077s.009,2.274.045,3.078a5.526,5.526,0,0,0,.347,1.812,3.683,3.683,0,0,0,.86,1.322,3.635,3.635,0,0,0,1.323.861,5.526,5.526,0,0,0,1.812.347c.805.036,1.072.045,3.078.045s2.273-.009,3.077-.045a5.526,5.526,0,0,0,1.812-.347,3.823,3.823,0,0,0,2.183-2.183,5.5,5.5,0,0,0,.347-1.812c.036-.8.045-1.071.045-3.078s-.009-2.273-.045-3.077a5.515,5.515,0,0,0-.347-1.813,3.7,3.7,0,0,0-.86-1.322,3.649,3.649,0,0,0-1.323-.861,5.552,5.552,0,0,0-1.812-.346C15.273,5.544,15.007,5.535,13,5.535Z" transform="translate(37.5 37.5)" fill="url(#linear-gradient)"/>
      </g>
    </g>
    <g id="instagram-4" data-name="instagram">
      <g transform="matrix(1, 0, 0, 1, -37.5, -37.5)" filter="url(#Path-3)">
        <path id="Path-6" data-name="Path" d="M5.136,2.568A2.568,2.568,0,1,1,2.568,0,2.568,2.568,0,0,1,5.136,2.568Z" transform="translate(48.09 48.09)" fill="url(#linear-gradient)"/>
      </g>
      <g transform="matrix(1, 0, 0, 1, -37.5, -37.5)" filter="url(#Shape-5)">
        <path id="Shape-11" data-name="Shape" d="M6.1,12.2c-1.971,0-2.209-.008-3.006-.043A4.138,4.138,0,0,1,1.711,11.9a2.32,2.32,0,0,1-.855-.556A2.322,2.322,0,0,1,.3,10.486,4.121,4.121,0,0,1,.043,9.105C.008,8.308,0,8.071,0,6.1S.008,3.89.043,3.092A4.138,4.138,0,0,1,.3,1.711,2.32,2.32,0,0,1,.856.856,2.322,2.322,0,0,1,1.712.3,4.121,4.121,0,0,1,3.092.043C3.87.008,4.1,0,6.1,0,8.071,0,8.308.008,9.105.043A4.121,4.121,0,0,1,10.486.3a2.322,2.322,0,0,1,.856.556,2.325,2.325,0,0,1,.556.855,4.138,4.138,0,0,1,.256,1.382c.036.8.043,1.035.043,3.007s-.008,2.209-.043,3.006a4.121,4.121,0,0,1-.256,1.381A2.468,2.468,0,0,1,10.486,11.9a4.124,4.124,0,0,1-1.381.256C8.308,12.19,8.071,12.2,6.1,12.2Zm0-9.919A3.82,3.82,0,1,0,9.919,6.1,3.824,3.824,0,0,0,6.1,2.279ZM10.07,1.235a.893.893,0,1,0,.893.893A.894.894,0,0,0,10.07,1.235Z" transform="translate(44.56 44.56)" fill="url(#linear-gradient)"/>
      </g>
      <g transform="matrix(1, 0, 0, 1, -37.5, -37.5)" filter="url(#Shape-6)">
        <path id="Shape-12" data-name="Shape" d="M13,26A13,13,0,0,1,3.808,3.808,13,13,0,1,1,22.192,22.192,12.915,12.915,0,0,1,13,26ZM13,5.535c-2.006,0-2.273.009-3.077.045a5.538,5.538,0,0,0-1.813.347A3.816,3.816,0,0,0,5.927,8.11,5.518,5.518,0,0,0,5.58,9.923c-.036.8-.045,1.071-.045,3.077s.009,2.274.045,3.078a5.526,5.526,0,0,0,.347,1.812,3.683,3.683,0,0,0,.86,1.322,3.635,3.635,0,0,0,1.323.861,5.526,5.526,0,0,0,1.812.347c.805.036,1.072.045,3.078.045s2.273-.009,3.077-.045a5.526,5.526,0,0,0,1.812-.347,3.823,3.823,0,0,0,2.183-2.183,5.5,5.5,0,0,0,.347-1.812c.036-.8.045-1.071.045-3.078s-.009-2.273-.045-3.077a5.515,5.515,0,0,0-.347-1.813,3.7,3.7,0,0,0-.86-1.322,3.649,3.649,0,0,0-1.323-.861,5.552,5.552,0,0,0-1.812-.346C15.273,5.544,15.007,5.535,13,5.535Z" transform="translate(37.5 37.5)" fill="url(#linear-gradient)"/>
      </g>
    </g>
  </g>
</svg>
