<?xml version="1.0" encoding="UTF-8"?>
<svg version="1.1" viewBox="0 0 129 129" xmlns="http://www.w3.org/2000/svg" xmlns:xlink="http://www.w3.org/1999/xlink">
<title>Group 6</title>
<desc>Created with Sketch.</desc>
<defs>
<linearGradient id="a" x1="34.839%" x2="79.208%" y1="15.974%" y2="90.71%">
<stop stop-color="#fff" stop-opacity=".4" offset="0"/>
<stop stop-color="#fff" stop-opacity=".2" offset="1"/>
</linearGradient>
<path id="e" d="m49 41c0 4.4184-3.5816 8-8 8s-8-3.5816-8-8 3.5816-8 8-8 8 3.5816 8 8z"/>
<filter id="n" x="-234.4%" y="-234.4%" width="568.8%" height="568.8%">
<feOffset dx="0" dy="0" in="SourceAlpha" result="shadowOffsetOuter1"/>
<feGaussianBlur in="shadowOffsetOuter1" result="shadowBlurOuter1" stdDeviation="12.5"/>
<feColorMatrix in="shadowBlurOuter1" values="0 0 0 0 5.73679768e-05   0 0 0 0 0.00814402248   0 0 0 0 0.097118433  0 0 0 0.0562172203 0"/>
</filter>
<path id="d" d="m59.067 27.331c-0.37136-1.0063-0.96381-1.9172-1.7336-2.6648-0.74765-0.76982-1.6579-1.3623-2.6648-1.7336-0.81662-0.31716-2.0434-0.69468-4.303-0.79753-2.4443-0.11147-3.1772-0.13549-9.3653-0.13549-6.1887 0-6.9216 0.023402-9.3653 0.13487-2.2596 0.10346-3.487 0.48098-4.303 0.79815-1.0069 0.37136-1.9178 0.96381-2.6648 1.7336-0.76982 0.74765-1.3623 1.6579-1.7342 2.6648-0.31716 0.81662-0.69468 2.044-0.79753 4.3036-0.11147 2.4437-0.13549 3.1766-0.13549 9.3653 0 6.1881 0.024018 6.921 0.13549 9.3653 0.10285 2.2596 0.48037 3.4863 0.79753 4.303 0.37198 1.0069 0.96381 1.9172 1.7336 2.6648 0.74765 0.76982 1.6579 1.3623 2.6648 1.7336 0.81662 0.31778 2.044 0.6953 4.3036 0.79815 2.4437 0.11147 3.176 0.13487 9.3647 0.13487 6.1893 0 6.9222-0.023402 9.3653-0.13487 2.2596-0.10285 3.487-0.48037 4.3036-0.79815 2.0212-0.77967 3.6188-2.3772 4.3984-4.3984 0.31716-0.81662 0.69468-2.0434 0.79815-4.303 0.11147-2.4443 0.13487-3.1772 0.13487-9.3653 0-6.1887-0.023402-6.9216-0.13487-9.3653-0.10285-2.2596-0.48037-3.487-0.79815-4.3036zm-18.067 25.569c-6.573 0-11.901-5.3277-11.901-11.901s5.3284-11.901 11.901-11.901c6.5724 0 11.901 5.3277 11.901 11.901s-5.3284 11.901-11.901 11.901zm12.371-21.491c-1.5359 0-2.7812-1.2453-2.7812-2.7812 0-1.5359 1.2453-2.7812 2.7812-2.7812 1.5359 0 2.7812 1.2453 2.7812 2.7812-6.158e-4 1.5359-1.2453 2.7812-2.7812 2.7812z"/>
<filter id="m" x="-98.7%" y="-98.7%" width="297.4%" height="297.4%">
<feOffset dx="0" dy="0" in="SourceAlpha" result="shadowOffsetOuter1"/>
<feGaussianBlur in="shadowOffsetOuter1" result="shadowBlurOuter1" stdDeviation="12.5"/>
<feColorMatrix in="shadowBlurOuter1" values="0 0 0 0 5.73679768e-05   0 0 0 0 0.00814402248   0 0 0 0 0.097118433  0 0 0 0.0562172203 0"/>
</filter>
<path id="c" d="m40.5 0c-22.364 0-40.5 18.136-40.5 40.5s18.136 40.5 40.5 40.5 40.5-18.136 40.5-40.5-18.136-40.5-40.5-40.5zm23.116 50.088c-0.11247 2.4756-0.50613 4.1658-1.0808 5.6453-1.2082 3.1239-3.6776 5.5933-6.8015 6.8015-1.4788 0.57472-3.1696 0.96776-5.6446 1.0808-2.48 0.11309-3.2722 0.14028-9.588 0.14028-6.3164 0-7.108-0.027191-9.5886-0.14028-2.475-0.11309-4.1658-0.50613-5.6446-1.0808-1.5524-0.58399-2.9577-1.4992-4.1195-2.6827-1.1828-1.1612-2.098-2.5671-2.682-4.1188-0.57472-1.4788-0.96838-3.1696-1.0808-5.6446-0.11433-2.4806-0.1409-3.2728-0.1409-9.5886s0.026573-7.108 0.14028-9.588c0.11247-2.4756 0.50551-4.1658 1.0802-5.6453 0.58399-1.5518 1.4998-2.9577 2.6833-4.1188 1.1612-1.1834 2.5671-2.0987 4.1188-2.6827 1.4794-0.57472 3.1696-0.96776 5.6453-1.0808 2.48-0.11309 3.2722-0.14028 9.588-0.14028s7.108 0.027191 9.588 0.1409c2.4756 0.11247 4.1658 0.50551 5.6453 1.0796 1.5518 0.58399 2.9577 1.4998 4.1195 2.6833 1.1828 1.1618 2.0987 2.5671 2.682 4.1188 0.57534 1.4794 0.96838 3.1696 1.0815 5.6453 0.11309 2.48 0.13966 3.2722 0.13966 9.588s-0.026573 7.108-0.14028 9.588z"/>
<filter id="l" x="-46.3%" y="-46.3%" width="192.6%" height="192.6%">
<feOffset dx="0" dy="0" in="SourceAlpha" result="shadowOffsetOuter1"/>
<feGaussianBlur in="shadowOffsetOuter1" result="shadowBlurOuter1" stdDeviation="12.5"/>
<feColorMatrix in="shadowBlurOuter1" values="0 0 0 0 5.73679768e-05   0 0 0 0 0.00814402248   0 0 0 0 0.097118433  0 0 0 0.0562172203 0"/>
</filter>
<path id="b" d="m49 41c0 4.4184-3.5816 8-8 8s-8-3.5816-8-8 3.5816-8 8-8 8 3.5816 8 8z"/>
<filter id="k" x="-234.4%" y="-234.4%" width="568.8%" height="568.8%">
<feOffset dx="0" dy="0" in="SourceAlpha" result="shadowOffsetOuter1"/>
<feGaussianBlur in="shadowOffsetOuter1" result="shadowBlurOuter1" stdDeviation="12.5"/>
<feColorMatrix in="shadowBlurOuter1" values="0 0 0 0 5.73679768e-05   0 0 0 0 0.00814402248   0 0 0 0 0.097118433  0 0 0 0.0562172203 0"/>
</filter>
<path id="j" d="m59.067 27.331c-0.37136-1.0063-0.96381-1.9172-1.7336-2.6648-0.74765-0.76982-1.6579-1.3623-2.6648-1.7336-0.81662-0.31716-2.0434-0.69468-4.303-0.79753-2.4443-0.11147-3.1772-0.13549-9.3653-0.13549-6.1887 0-6.9216 0.023402-9.3653 0.13487-2.2596 0.10346-3.487 0.48098-4.303 0.79815-1.0069 0.37136-1.9178 0.96381-2.6648 1.7336-0.76982 0.74765-1.3623 1.6579-1.7342 2.6648-0.31716 0.81662-0.69468 2.044-0.79753 4.3036-0.11147 2.4437-0.13549 3.1766-0.13549 9.3653 0 6.1881 0.024018 6.921 0.13549 9.3653 0.10285 2.2596 0.48037 3.4863 0.79753 4.303 0.37198 1.0069 0.96381 1.9172 1.7336 2.6648 0.74765 0.76982 1.6579 1.3623 2.6648 1.7336 0.81662 0.31778 2.044 0.6953 4.3036 0.79815 2.4437 0.11147 3.176 0.13487 9.3647 0.13487 6.1893 0 6.9222-0.023402 9.3653-0.13487 2.2596-0.10285 3.487-0.48037 4.3036-0.79815 2.0212-0.77967 3.6188-2.3772 4.3984-4.3984 0.31716-0.81662 0.69468-2.0434 0.79815-4.303 0.11147-2.4443 0.13487-3.1772 0.13487-9.3653 0-6.1887-0.023402-6.9216-0.13487-9.3653-0.10285-2.2596-0.48037-3.487-0.79815-4.3036zm-18.067 25.569c-6.573 0-11.901-5.3277-11.901-11.901s5.3284-11.901 11.901-11.901c6.5724 0 11.901 5.3277 11.901 11.901s-5.3284 11.901-11.901 11.901zm12.371-21.491c-1.5359 0-2.7812-1.2453-2.7812-2.7812 0-1.5359 1.2453-2.7812 2.7812-2.7812 1.5359 0 2.7812 1.2453 2.7812 2.7812-6.158e-4 1.5359-1.2453 2.7812-2.7812 2.7812z"/>
<filter id="s" x="-98.7%" y="-98.7%" width="297.4%" height="297.4%">
<feOffset dx="0" dy="0" in="SourceAlpha" result="shadowOffsetOuter1"/>
<feGaussianBlur in="shadowOffsetOuter1" result="shadowBlurOuter1" stdDeviation="12.5"/>
<feColorMatrix in="shadowBlurOuter1" values="0 0 0 0 5.73679768e-05   0 0 0 0 0.00814402248   0 0 0 0 0.097118433  0 0 0 0.0562172203 0"/>
</filter>
<path id="i" d="m40.5 0c-22.364 0-40.5 18.136-40.5 40.5s18.136 40.5 40.5 40.5 40.5-18.136 40.5-40.5-18.136-40.5-40.5-40.5zm23.116 50.088c-0.11247 2.4756-0.50613 4.1658-1.0808 5.6453-1.2082 3.1239-3.6776 5.5933-6.8015 6.8015-1.4788 0.57472-3.1696 0.96776-5.6446 1.0808-2.48 0.11309-3.2722 0.14028-9.588 0.14028-6.3164 0-7.108-0.027191-9.5886-0.14028-2.475-0.11309-4.1658-0.50613-5.6446-1.0808-1.5524-0.58399-2.9577-1.4992-4.1195-2.6827-1.1828-1.1612-2.098-2.5671-2.682-4.1188-0.57472-1.4788-0.96838-3.1696-1.0808-5.6446-0.11433-2.4806-0.1409-3.2728-0.1409-9.5886s0.026573-7.108 0.14028-9.588c0.11247-2.4756 0.50551-4.1658 1.0802-5.6453 0.58399-1.5518 1.4998-2.9577 2.6833-4.1188 1.1612-1.1834 2.5671-2.0987 4.1188-2.6827 1.4794-0.57472 3.1696-0.96776 5.6453-1.0808 2.48-0.11309 3.2722-0.14028 9.588-0.14028s7.108 0.027191 9.588 0.1409c2.4756 0.11247 4.1658 0.50551 5.6453 1.0796 1.5518 0.58399 2.9577 1.4998 4.1195 2.6833 1.1828 1.1618 2.0987 2.5671 2.682 4.1188 0.57534 1.4794 0.96838 3.1696 1.0815 5.6453 0.11309 2.48 0.13966 3.2722 0.13966 9.588s-0.026573 7.108-0.14028 9.588z"/>
<filter id="r" x="-46.3%" y="-46.3%" width="192.6%" height="192.6%">
<feOffset dx="0" dy="0" in="SourceAlpha" result="shadowOffsetOuter1"/>
<feGaussianBlur in="shadowOffsetOuter1" result="shadowBlurOuter1" stdDeviation="12.5"/>
<feColorMatrix in="shadowBlurOuter1" values="0 0 0 0 5.73679768e-05   0 0 0 0 0.00814402248   0 0 0 0 0.097118433  0 0 0 0.0562172203 0"/>
</filter>
<path id="h" d="m49 41c0 4.4184-3.5816 8-8 8s-8-3.5816-8-8 3.5816-8 8-8 8 3.5816 8 8z"/>
<filter id="q" x="-234.4%" y="-234.4%" width="568.8%" height="568.8%">
<feOffset dx="0" dy="0" in="SourceAlpha" result="shadowOffsetOuter1"/>
<feGaussianBlur in="shadowOffsetOuter1" result="shadowBlurOuter1" stdDeviation="12.5"/>
<feColorMatrix in="shadowBlurOuter1" values="0 0 0 0 5.73679768e-05   0 0 0 0 0.00814402248   0 0 0 0 0.097118433  0 0 0 0.0562172203 0"/>
</filter>
<path id="g" d="m59.067 27.331c-0.37136-1.0063-0.96381-1.9172-1.7336-2.6648-0.74765-0.76982-1.6579-1.3623-2.6648-1.7336-0.81662-0.31716-2.0434-0.69468-4.303-0.79753-2.4443-0.11147-3.1772-0.13549-9.3653-0.13549-6.1887 0-6.9216 0.023402-9.3653 0.13487-2.2596 0.10346-3.487 0.48098-4.303 0.79815-1.0069 0.37136-1.9178 0.96381-2.6648 1.7336-0.76982 0.74765-1.3623 1.6579-1.7342 2.6648-0.31716 0.81662-0.69468 2.044-0.79753 4.3036-0.11147 2.4437-0.13549 3.1766-0.13549 9.3653 0 6.1881 0.024018 6.921 0.13549 9.3653 0.10285 2.2596 0.48037 3.4863 0.79753 4.303 0.37198 1.0069 0.96381 1.9172 1.7336 2.6648 0.74765 0.76982 1.6579 1.3623 2.6648 1.7336 0.81662 0.31778 2.044 0.6953 4.3036 0.79815 2.4437 0.11147 3.176 0.13487 9.3647 0.13487 6.1893 0 6.9222-0.023402 9.3653-0.13487 2.2596-0.10285 3.487-0.48037 4.3036-0.79815 2.0212-0.77967 3.6188-2.3772 4.3984-4.3984 0.31716-0.81662 0.69468-2.0434 0.79815-4.303 0.11147-2.4443 0.13487-3.1772 0.13487-9.3653 0-6.1887-0.023402-6.9216-0.13487-9.3653-0.10285-2.2596-0.48037-3.487-0.79815-4.3036zm-18.067 25.569c-6.573 0-11.901-5.3277-11.901-11.901s5.3284-11.901 11.901-11.901c6.5724 0 11.901 5.3277 11.901 11.901s-5.3284 11.901-11.901 11.901zm12.371-21.491c-1.5359 0-2.7812-1.2453-2.7812-2.7812 0-1.5359 1.2453-2.7812 2.7812-2.7812 1.5359 0 2.7812 1.2453 2.7812 2.7812-6.158e-4 1.5359-1.2453 2.7812-2.7812 2.7812z"/>
<filter id="p" x="-98.7%" y="-98.7%" width="297.4%" height="297.4%">
<feOffset dx="0" dy="0" in="SourceAlpha" result="shadowOffsetOuter1"/>
<feGaussianBlur in="shadowOffsetOuter1" result="shadowBlurOuter1" stdDeviation="12.5"/>
<feColorMatrix in="shadowBlurOuter1" values="0 0 0 0 5.73679768e-05   0 0 0 0 0.00814402248   0 0 0 0 0.097118433  0 0 0 0.0562172203 0"/>
</filter>
<path id="f" d="m40.5 0c-22.364 0-40.5 18.136-40.5 40.5s18.136 40.5 40.5 40.5 40.5-18.136 40.5-40.5-18.136-40.5-40.5-40.5zm23.116 50.088c-0.11247 2.4756-0.50613 4.1658-1.0808 5.6453-1.2082 3.1239-3.6776 5.5933-6.8015 6.8015-1.4788 0.57472-3.1696 0.96776-5.6446 1.0808-2.48 0.11309-3.2722 0.14028-9.588 0.14028-6.3164 0-7.108-0.027191-9.5886-0.14028-2.475-0.11309-4.1658-0.50613-5.6446-1.0808-1.5524-0.58399-2.9577-1.4992-4.1195-2.6827-1.1828-1.1612-2.098-2.5671-2.682-4.1188-0.57472-1.4788-0.96838-3.1696-1.0808-5.6446-0.11433-2.4806-0.1409-3.2728-0.1409-9.5886s0.026573-7.108 0.14028-9.588c0.11247-2.4756 0.50551-4.1658 1.0802-5.6453 0.58399-1.5518 1.4998-2.9577 2.6833-4.1188 1.1612-1.1834 2.5671-2.0987 4.1188-2.6827 1.4794-0.57472 3.1696-0.96776 5.6453-1.0808 2.48-0.11309 3.2722-0.14028 9.588-0.14028s7.108 0.027191 9.588 0.1409c2.4756 0.11247 4.1658 0.50551 5.6453 1.0796 1.5518 0.58399 2.9577 1.4998 4.1195 2.6833 1.1828 1.1618 2.0987 2.5671 2.682 4.1188 0.57534 1.4794 0.96838 3.1696 1.0815 5.6453 0.11309 2.48 0.13966 3.2722 0.13966 9.588s-0.026573 7.108-0.14028 9.588z"/>
<filter id="o" x="-46.3%" y="-46.3%" width="192.6%" height="192.6%">
<feOffset dx="0" dy="0" in="SourceAlpha" result="shadowOffsetOuter1"/>
<feGaussianBlur in="shadowOffsetOuter1" result="shadowBlurOuter1" stdDeviation="12.5"/>
<feColorMatrix in="shadowBlurOuter1" values="0 0 0 0 5.73679768e-05   0 0 0 0 0.00814402248   0 0 0 0 0.097118433  0 0 0 0.0562172203 0"/>
</filter>
</defs>
<g fill="none" fill-rule="evenodd">
<g transform="translate(-1027 -1266)">
<g transform="translate(825 1290)">
<g transform="translate(226)">
<g id="instagram">
<g id="Path">
<use fill="black" filter="url(#n)" xlink:href="#e"/>
<use fill="url(#a)" fill-rule="evenodd" xlink:href="#e"/>
</g>
<g id="Shape">
<use fill="black" filter="url(#m)" xlink:href="#d"/>
<use fill="url(#a)" fill-rule="evenodd" xlink:href="#d"/>
</g>
<g id="Shape">
<use fill="black" filter="url(#l)" xlink:href="#c"/>
<use fill="url(#a)" fill-rule="evenodd" xlink:href="#c"/>
</g>
</g>
<g id="v">
<g id="u">
<use fill="black" filter="url(#k)" xlink:href="#b"/>
<use fill="url(#a)" fill-rule="evenodd" xlink:href="#b"/>
</g>
<g id="Shape">
<use fill="black" filter="url(#s)" xlink:href="#j"/>
<use fill="url(#a)" fill-rule="evenodd" xlink:href="#j"/>
</g>
<g id="Shape">
<use fill="black" filter="url(#r)" xlink:href="#i"/>
<use fill="url(#a)" fill-rule="evenodd" xlink:href="#i"/>
</g>
</g>
<use fill="black" filter="url(#q)" xlink:href="#h"/>
<use fill="url(#a)" fill-rule="evenodd" xlink:href="#h"/>
<g id="t">
<use fill="black" filter="url(#p)" xlink:href="#g"/>
<use fill="url(#a)" fill-rule="evenodd" xlink:href="#g"/>
</g>
<use fill="black" filter="url(#o)" xlink:href="#f"/>
<use fill="url(#a)" fill-rule="evenodd" xlink:href="#f"/>
</g>
</g>
</g>
</g>
</svg>
