<svg xmlns="http://www.w3.org/2000/svg" xmlns:xlink="http://www.w3.org/1999/xlink" width="309" height="381" viewBox="0 0 309 381"><defs><style>.a{fill:#fff;}.b,.c{fill:none;}.c{stroke:#707070;stroke-linecap:round;stroke-miterlimit:10;stroke-width:0.5px;}.d{filter:url(#bq);}.e{filter:url(#bo);}.f{filter:url(#bm);}.g{filter:url(#bk);}.h{filter:url(#bi);}.i{filter:url(#bg);}.j{filter:url(#be);}.k{filter:url(#bc);}.l{filter:url(#ba);}.m{filter:url(#ay);}.n{filter:url(#aw);}.o{filter:url(#au);}.p{filter:url(#as);}.q{filter:url(#aq);}.r{filter:url(#ao);}.s{filter:url(#am);}.t{filter:url(#ak);}.u{filter:url(#ai);}.v{filter:url(#ag);}.w{filter:url(#ae);}.x{filter:url(#ac);}.y{filter:url(#aa);}.z{filter:url(#y);}.aa{filter:url(#w);}.ab{filter:url(#u);}.ac{filter:url(#s);}.ad{filter:url(#q);}.ae{filter:url(#o);}.af{filter:url(#m);}.ag{filter:url(#k);}.ah{filter:url(#i);}.ai{filter:url(#g);}.aj{filter:url(#e);}.ak{filter:url(#c);}.al{filter:url(#a);}


@keyframes pulse {
  0%,
  100% {
    opacity: 1;
  }
  50% {
    opacity: 0.5;
  }
}
g g {
  animation: pulse 2s cubic-bezier(0.4, 0, 0.6, 1) infinite;
}
</style><filter id="a" x="273" y="271" width="31" height="31" filterUnits="userSpaceOnUse"><feOffset input="SourceAlpha"/><feGaussianBlur stdDeviation="4.5" result="b"/><feFlood flood-color="#fff" flood-opacity="0.502"/><feComposite operator="in" in2="b"/><feComposite in="SourceGraphic"/></filter><filter id="c" x="258" y="225" width="29" height="29" filterUnits="userSpaceOnUse"><feOffset input="SourceAlpha"/><feGaussianBlur stdDeviation="4.5" result="d"/><feFlood flood-color="#fff" flood-opacity="0.502"/><feComposite operator="in" in2="d"/><feComposite in="SourceGraphic"/></filter><filter id="e" x="262" y="298" width="30" height="30" filterUnits="userSpaceOnUse"><feOffset input="SourceAlpha"/><feGaussianBlur stdDeviation="4.5" result="f"/><feFlood flood-color="#fff" flood-opacity="0.502"/><feComposite operator="in" in2="f"/><feComposite in="SourceGraphic"/></filter><filter id="g" x="232" y="238" width="30" height="30" filterUnits="userSpaceOnUse"><feOffset input="SourceAlpha"/><feGaussianBlur stdDeviation="4.5" result="h"/><feFlood flood-color="#fff" flood-opacity="0.502"/><feComposite operator="in" in2="h"/><feComposite in="SourceGraphic"/></filter><filter id="i" x="259" y="347" width="32" height="32" filterUnits="userSpaceOnUse"><feOffset input="SourceAlpha"/><feGaussianBlur stdDeviation="4.5" result="j"/><feFlood flood-color="#fff" flood-opacity="0.502"/><feComposite operator="in" in2="j"/><feComposite in="SourceGraphic"/></filter><filter id="k" x="249" y="304" width="29" height="29" filterUnits="userSpaceOnUse"><feOffset input="SourceAlpha"/><feGaussianBlur stdDeviation="4.5" result="l"/><feFlood flood-color="#fff" flood-opacity="0.502"/><feComposite operator="in" in2="l"/><feComposite in="SourceGraphic"/></filter><filter id="m" x="191" y="352" width="29" height="29" filterUnits="userSpaceOnUse"><feOffset input="SourceAlpha"/><feGaussianBlur stdDeviation="4.5" result="n"/><feFlood flood-color="#fff" flood-opacity="0.502"/><feComposite operator="in" in2="n"/><feComposite in="SourceGraphic"/></filter><filter id="o" x="179" y="194" width="30" height="30" filterUnits="userSpaceOnUse"><feOffset input="SourceAlpha"/><feGaussianBlur stdDeviation="4.5" result="p"/><feFlood flood-color="#fff" flood-opacity="0.502"/><feComposite operator="in" in2="p"/><feComposite in="SourceGraphic"/></filter><filter id="q" x="229" y="136" width="30" height="30" filterUnits="userSpaceOnUse"><feOffset input="SourceAlpha"/><feGaussianBlur stdDeviation="4.5" result="r"/><feFlood flood-color="#fff" flood-opacity="0.502"/><feComposite operator="in" in2="r"/><feComposite in="SourceGraphic"/></filter><filter id="s" x="170" y="293" width="30" height="30" filterUnits="userSpaceOnUse"><feOffset input="SourceAlpha"/><feGaussianBlur stdDeviation="4.5" result="t"/><feFlood flood-color="#fff" flood-opacity="0.502"/><feComposite operator="in" in2="t"/><feComposite in="SourceGraphic"/></filter><filter id="u" x="210" y="333" width="32" height="32" filterUnits="userSpaceOnUse"><feOffset input="SourceAlpha"/><feGaussianBlur stdDeviation="4.5" result="v"/><feFlood flood-color="#fff" flood-opacity="0.502"/><feComposite operator="in" in2="v"/><feComposite in="SourceGraphic"/></filter><filter id="w" x="193" y="200" width="29" height="29" filterUnits="userSpaceOnUse"><feOffset input="SourceAlpha"/><feGaussianBlur stdDeviation="4.5" result="x"/><feFlood flood-color="#fff" flood-opacity="0.502"/><feComposite operator="in" in2="x"/><feComposite in="SourceGraphic"/></filter><filter id="y" x="203" y="293" width="29" height="29" filterUnits="userSpaceOnUse"><feOffset input="SourceAlpha"/><feGaussianBlur stdDeviation="4.5" result="z"/><feFlood flood-color="#fff" flood-opacity="0.502"/><feComposite operator="in" in2="z"/><feComposite in="SourceGraphic"/></filter><filter id="aa" x="197" y="274" width="31" height="31" filterUnits="userSpaceOnUse"><feOffset input="SourceAlpha"/><feGaussianBlur stdDeviation="4.5" result="ab"/><feFlood flood-color="#fff" flood-opacity="0.502"/><feComposite operator="in" in2="ab"/><feComposite in="SourceGraphic"/></filter><filter id="ac" x="87" y="245" width="31" height="31" filterUnits="userSpaceOnUse"><feOffset input="SourceAlpha"/><feGaussianBlur stdDeviation="4.5" result="ad"/><feFlood flood-color="#fff" flood-opacity="0.502"/><feComposite operator="in" in2="ad"/><feComposite in="SourceGraphic"/></filter><filter id="ae" x="104" y="199" width="29" height="29" filterUnits="userSpaceOnUse"><feOffset input="SourceAlpha"/><feGaussianBlur stdDeviation="4.5" result="af"/><feFlood flood-color="#fff" flood-opacity="0.502"/><feComposite operator="in" in2="af"/><feComposite in="SourceGraphic"/></filter><filter id="ag" x="99" y="272" width="30" height="30" filterUnits="userSpaceOnUse"><feOffset input="SourceAlpha"/><feGaussianBlur stdDeviation="4.5" result="ah"/><feFlood flood-color="#fff" flood-opacity="0.502"/><feComposite operator="in" in2="ah"/><feComposite in="SourceGraphic"/></filter><filter id="ai" x="129" y="212" width="30" height="30" filterUnits="userSpaceOnUse"><feOffset input="SourceAlpha"/><feGaussianBlur stdDeviation="4.5" result="aj"/><feFlood flood-color="#fff" flood-opacity="0.502"/><feComposite operator="in" in2="aj"/><feComposite in="SourceGraphic"/></filter><filter id="ak" x="100" y="321" width="32" height="32" filterUnits="userSpaceOnUse"><feOffset input="SourceAlpha"/><feGaussianBlur stdDeviation="4.5" result="al"/><feFlood flood-color="#fff" flood-opacity="0.502"/><feComposite operator="in" in2="al"/><feComposite in="SourceGraphic"/></filter><filter id="am" x="113" y="278" width="29" height="29" filterUnits="userSpaceOnUse"><feOffset input="SourceAlpha"/><feGaussianBlur stdDeviation="4.5" result="an"/><feFlood flood-color="#fff" flood-opacity="0.502"/><feComposite operator="in" in2="an"/><feComposite in="SourceGraphic"/></filter><filter id="ao" x="237" y="46" width="31" height="31" filterUnits="userSpaceOnUse"><feOffset input="SourceAlpha"/><feGaussianBlur stdDeviation="4.5" result="ap"/><feFlood flood-color="#fff" flood-opacity="0.502"/><feComposite operator="in" in2="ap"/><feComposite in="SourceGraphic"/></filter><filter id="aq" x="254" y="0" width="29" height="29" filterUnits="userSpaceOnUse"><feOffset input="SourceAlpha"/><feGaussianBlur stdDeviation="4.5" result="ar"/><feFlood flood-color="#fff" flood-opacity="0.502"/><feComposite operator="in" in2="ar"/><feComposite in="SourceGraphic"/></filter><filter id="as" x="263" y="73" width="30" height="30" filterUnits="userSpaceOnUse"><feOffset input="SourceAlpha"/><feGaussianBlur stdDeviation="4.5" result="at"/><feFlood flood-color="#fff" flood-opacity="0.502"/><feComposite operator="in" in2="at"/><feComposite in="SourceGraphic"/></filter><filter id="au" x="279" y="13" width="30" height="30" filterUnits="userSpaceOnUse"><feOffset input="SourceAlpha"/><feGaussianBlur stdDeviation="4.5" result="av"/><feFlood flood-color="#fff" flood-opacity="0.502"/><feComposite operator="in" in2="av"/><feComposite in="SourceGraphic"/></filter><filter id="aw" x="240" y="172" width="30" height="30" filterUnits="userSpaceOnUse"><feOffset input="SourceAlpha"/><feGaussianBlur stdDeviation="4.5" result="ax"/><feFlood flood-color="#fff" flood-opacity="0.502"/><feComposite operator="in" in2="ax"/><feComposite in="SourceGraphic"/></filter><filter id="ay" x="250" y="122" width="32" height="32" filterUnits="userSpaceOnUse"><feOffset input="SourceAlpha"/><feGaussianBlur stdDeviation="4.5" result="az"/><feFlood flood-color="#fff" flood-opacity="0.502"/><feComposite operator="in" in2="az"/><feComposite in="SourceGraphic"/></filter><filter id="ba" x="277" y="79" width="29" height="29" filterUnits="userSpaceOnUse"><feOffset input="SourceAlpha"/><feGaussianBlur stdDeviation="4.5" result="bb"/><feFlood flood-color="#fff" flood-opacity="0.502"/><feComposite operator="in" in2="bb"/><feComposite in="SourceGraphic"/></filter><filter id="bc" x="273" y="172" width="29" height="29" filterUnits="userSpaceOnUse"><feOffset input="SourceAlpha"/><feGaussianBlur stdDeviation="4.5" result="bd"/><feFlood flood-color="#fff" flood-opacity="0.502"/><feComposite operator="in" in2="bd"/><feComposite in="SourceGraphic"/></filter><filter id="be" x="267" y="153" width="31" height="31" filterUnits="userSpaceOnUse"><feOffset input="SourceAlpha"/><feGaussianBlur stdDeviation="4.5" result="bf"/><feFlood flood-color="#fff" flood-opacity="0.502"/><feComposite operator="in" in2="bf"/><feComposite in="SourceGraphic"/></filter><filter id="bg" x="41" y="289" width="31" height="31" filterUnits="userSpaceOnUse"><feOffset input="SourceAlpha"/><feGaussianBlur stdDeviation="4.5" result="bh"/><feFlood flood-color="#fff" flood-opacity="0.502"/><feComposite operator="in" in2="bh"/><feComposite in="SourceGraphic"/></filter><filter id="bi" x="26" y="243" width="29" height="29" filterUnits="userSpaceOnUse"><feOffset input="SourceAlpha"/><feGaussianBlur stdDeviation="4.5" result="bj"/><feFlood flood-color="#fff" flood-opacity="0.502"/><feComposite operator="in" in2="bj"/><feComposite in="SourceGraphic"/></filter><filter id="bk" x="30" y="316" width="30" height="30" filterUnits="userSpaceOnUse"><feOffset input="SourceAlpha"/><feGaussianBlur stdDeviation="4.5" result="bl"/><feFlood flood-color="#fff" flood-opacity="0.502"/><feComposite operator="in" in2="bl"/><feComposite in="SourceGraphic"/></filter><filter id="bm" x="0" y="256" width="30" height="30" filterUnits="userSpaceOnUse"><feOffset input="SourceAlpha"/><feGaussianBlur stdDeviation="4.5" result="bn"/><feFlood flood-color="#fff" flood-opacity="0.502"/><feComposite operator="in" in2="bn"/><feComposite in="SourceGraphic"/></filter><filter id="bo" x="17" y="322" width="29" height="29" filterUnits="userSpaceOnUse"><feOffset input="SourceAlpha"/><feGaussianBlur stdDeviation="4.5" result="bp"/><feFlood flood-color="#fff" flood-opacity="0.502"/><feComposite operator="in" in2="bp"/><feComposite in="SourceGraphic"/></filter><filter id="bq" x="212.656" y="335.656" width="42.447" height="44.32" filterUnits="userSpaceOnUse"><feOffset input="SourceAlpha"/><feGaussianBlur stdDeviation="4.5" result="br"/><feFlood flood-color="#fff" flood-opacity="0.694"/><feComposite operator="in" in2="br"/><feComposite in="SourceGraphic"/></filter></defs><g transform="translate(13.5 13.5)"><g class="al" transform="matrix(1, 0, 0, 1, -13.5, -13.5)"><path class="a" d="M2,0c-.276,1.5-.5,1.724-2,2,1.5.276,1.724.5,2,2,.276-1.5.5-1.724,2-2C2.5,1.724,2.276,1.5,2,0Z" transform="translate(286.5 284.5)"/></g><g class="ak" transform="matrix(1, 0, 0, 1, -13.5, -13.5)"><path class="a" d="M1,0C.862.75.75.862,0,1c.75.138.862.25,1,1,.138-.75.25-.862,1-1C1.25.862,1.138.75,1,0Z" transform="translate(271.5 238.5)"/></g><g class="aj" transform="matrix(1, 0, 0, 1, -13.5, -13.5)"><path class="a" d="M1.5,0C1.293,1.125,1.125,1.293,0,1.5c1.125.207,1.293.375,1.5,1.5.207-1.125.375-1.293,1.5-1.5C1.875,1.293,1.707,1.125,1.5,0Z" transform="translate(275.5 311.5)"/></g><g class="ai" transform="matrix(1, 0, 0, 1, -13.5, -13.5)"><path class="a" d="M1.5,0C1.293,1.125,1.125,1.293,0,1.5c1.125.207,1.293.375,1.5,1.5.207-1.125.375-1.293,1.5-1.5C1.875,1.293,1.707,1.125,1.5,0Z" transform="translate(245.5 251.5)"/></g><g class="ah" transform="matrix(1, 0, 0, 1, -13.5, -13.5)"><path class="a" d="M2.5,0C2.155,1.875,1.875,2.155,0,2.5c1.875.345,2.155.625,2.5,2.5.345-1.875.625-2.155,2.5-2.5C3.125,2.155,2.845,1.875,2.5,0Z" transform="translate(272.5 360.5)"/></g><g class="ag" transform="matrix(1, 0, 0, 1, -13.5, -13.5)"><path class="a" d="M1,0C.862.75.75.862,0,1c.75.138.862.25,1,1,.138-.75.25-.862,1-1C1.25.862,1.138.75,1,0Z" transform="translate(262.5 317.5)"/></g><g class="af" transform="matrix(1, 0, 0, 1, -13.5, -13.5)"><path class="a" d="M1,0C.862.75.75.862,0,1c.75.138.862.25,1,1,.138-.75.25-.862,1-1C1.25.862,1.138.75,1,0Z" transform="translate(204.5 365.5)"/></g><g class="ae" transform="matrix(1, 0, 0, 1, -13.5, -13.5)"><path class="a" d="M-1.5,0c.207,1.125.375,1.293,1.5,1.5-1.125.207-1.293.375-1.5,1.5C-1.707,1.875-1.875,1.707-3,1.5-1.875,1.293-1.707,1.125-1.5,0Z" transform="translate(195.5 207.5)"/></g><g class="ad" transform="matrix(1, 0, 0, 1, -13.5, -13.5)"><path class="a" d="M-1.5,0c.207,1.125.375,1.293,1.5,1.5-1.125.207-1.293.375-1.5,1.5C-1.707,1.875-1.875,1.707-3,1.5-1.875,1.293-1.707,1.125-1.5,0Z" transform="translate(245.5 149.5)"/></g><g class="ac" transform="matrix(1, 0, 0, 1, -13.5, -13.5)"><path class="a" d="M-1.5,0c.207,1.125.375,1.293,1.5,1.5-1.125.207-1.293.375-1.5,1.5C-1.707,1.875-1.875,1.707-3,1.5-1.875,1.293-1.707,1.125-1.5,0Z" transform="translate(186.5 306.5)"/></g><g class="ab" transform="matrix(1, 0, 0, 1, -13.5, -13.5)"><path class="a" d="M-2.5,0c.345,1.875.625,2.155,2.5,2.5-1.875.345-2.155.625-2.5,2.5C-2.845,3.125-3.125,2.845-5,2.5-3.125,2.155-2.845,1.875-2.5,0Z" transform="translate(228.5 346.5)"/></g><g class="aa" transform="matrix(1, 0, 0, 1, -13.5, -13.5)"><path class="a" d="M-1,0c.138.75.25.862,1,1-.75.138-.862.25-1,1-.138-.75-.25-.862-1-1C-1.25.862-1.138.75-1,0Z" transform="translate(208.5 213.5)"/></g><g class="z" transform="matrix(1, 0, 0, 1, -13.5, -13.5)"><path class="a" d="M-1,0c.138.75.25.862,1,1-.75.138-.862.25-1,1-.138-.75-.25-.862-1-1C-1.25.862-1.138.75-1,0Z" transform="translate(218.5 306.5)"/></g><g class="y" transform="matrix(1, 0, 0, 1, -13.5, -13.5)"><path class="a" d="M-2,0c.276,1.5.5,1.724,2,2-1.5.276-1.724.5-2,2-.276-1.5-.5-1.724-2-2C-2.5,1.724-2.276,1.5-2,0Z" transform="translate(214.5 287.5)"/></g><g class="x" transform="matrix(1, 0, 0, 1, -13.5, -13.5)"><path class="a" d="M-2,0c.276,1.5.5,1.724,2,2-1.5.276-1.724.5-2,2-.276-1.5-.5-1.724-2-2C-2.5,1.724-2.276,1.5-2,0Z" transform="translate(104.5 258.5)"/></g><g class="w" transform="matrix(1, 0, 0, 1, -13.5, -13.5)"><path class="a" d="M-1,0c.138.75.25.862,1,1-.75.138-.862.25-1,1-.138-.75-.25-.862-1-1C-1.25.862-1.138.75-1,0Z" transform="translate(119.5 212.5)"/></g><g class="v" transform="matrix(1, 0, 0, 1, -13.5, -13.5)"><path class="a" d="M-1.5,0c.207,1.125.375,1.293,1.5,1.5-1.125.207-1.293.375-1.5,1.5C-1.707,1.875-1.875,1.707-3,1.5-1.875,1.293-1.707,1.125-1.5,0Z" transform="translate(115.5 285.5)"/></g><g class="u" transform="matrix(1, 0, 0, 1, -13.5, -13.5)"><path class="a" d="M-1.5,0c.207,1.125.375,1.293,1.5,1.5-1.125.207-1.293.375-1.5,1.5C-1.707,1.875-1.875,1.707-3,1.5-1.875,1.293-1.707,1.125-1.5,0Z" transform="translate(145.5 225.5)"/></g><g class="t" transform="matrix(1, 0, 0, 1, -13.5, -13.5)"><path class="a" d="M-2.5,0c.345,1.875.625,2.155,2.5,2.5-1.875.345-2.155.625-2.5,2.5C-2.845,3.125-3.125,2.845-5,2.5-3.125,2.155-2.845,1.875-2.5,0Z" transform="translate(118.5 334.5)"/></g><g class="s" transform="matrix(1, 0, 0, 1, -13.5, -13.5)"><path class="a" d="M-1,0c.138.75.25.862,1,1-.75.138-.862.25-1,1-.138-.75-.25-.862-1-1C-1.25.862-1.138.75-1,0Z" transform="translate(128.5 291.5)"/></g><g class="r" transform="matrix(1, 0, 0, 1, -13.5, -13.5)"><path class="a" d="M-2,0c.276,1.5.5,1.724,2,2-1.5.276-1.724.5-2,2-.276-1.5-.5-1.724-2-2C-2.5,1.724-2.276,1.5-2,0Z" transform="translate(254.5 59.5)"/></g><g class="q" transform="matrix(1, 0, 0, 1, -13.5, -13.5)"><path class="a" d="M-1,0c.138.75.25.862,1,1-.75.138-.862.25-1,1-.138-.75-.25-.862-1-1C-1.25.862-1.138.75-1,0Z" transform="translate(269.5 13.5)"/></g><g class="p" transform="matrix(1, 0, 0, 1, -13.5, -13.5)"><path class="a" d="M-1.5,0c.207,1.125.375,1.293,1.5,1.5-1.125.207-1.293.375-1.5,1.5C-1.707,1.875-1.875,1.707-3,1.5-1.875,1.293-1.707,1.125-1.5,0Z" transform="translate(279.5 86.5)"/></g><g class="o" transform="matrix(1, 0, 0, 1, -13.5, -13.5)"><path class="a" d="M-1.5,0c.207,1.125.375,1.293,1.5,1.5-1.125.207-1.293.375-1.5,1.5C-1.707,1.875-1.875,1.707-3,1.5-1.875,1.293-1.707,1.125-1.5,0Z" transform="translate(295.5 26.5)"/></g><g class="n" transform="matrix(1, 0, 0, 1, -13.5, -13.5)"><path class="a" d="M-1.5,0c.207,1.125.375,1.293,1.5,1.5-1.125.207-1.293.375-1.5,1.5C-1.707,1.875-1.875,1.707-3,1.5-1.875,1.293-1.707,1.125-1.5,0Z" transform="translate(256.5 185.5)"/></g><g class="m" transform="matrix(1, 0, 0, 1, -13.5, -13.5)"><path class="a" d="M-2.5,0c.345,1.875.625,2.155,2.5,2.5-1.875.345-2.155.625-2.5,2.5C-2.845,3.125-3.125,2.845-5,2.5-3.125,2.155-2.845,1.875-2.5,0Z" transform="translate(268.5 135.5)"/></g><g class="l" transform="matrix(1, 0, 0, 1, -13.5, -13.5)"><path class="a" d="M-1,0c.138.75.25.862,1,1-.75.138-.862.25-1,1-.138-.75-.25-.862-1-1C-1.25.862-1.138.75-1,0Z" transform="translate(292.5 92.5)"/></g><g class="k" transform="matrix(1, 0, 0, 1, -13.5, -13.5)"><path class="a" d="M-1,0c.138.75.25.862,1,1-.75.138-.862.25-1,1-.138-.75-.25-.862-1-1C-1.25.862-1.138.75-1,0Z" transform="translate(288.5 185.5)"/></g><g class="j" transform="matrix(1, 0, 0, 1, -13.5, -13.5)"><path class="a" d="M-2,0c.276,1.5.5,1.724,2,2-1.5.276-1.724.5-2,2-.276-1.5-.5-1.724-2-2C-2.5,1.724-2.276,1.5-2,0Z" transform="translate(284.5 166.5)"/></g><g class="i" transform="matrix(1, 0, 0, 1, -13.5, -13.5)"><path class="a" d="M2,0c-.276,1.5-.5,1.724-2,2,1.5.276,1.724.5,2,2,.276-1.5.5-1.724,2-2C2.5,1.724,2.276,1.5,2,0Z" transform="translate(54.5 302.5)"/></g><g class="h" transform="matrix(1, 0, 0, 1, -13.5, -13.5)"><path class="a" d="M1,0C.862.75.75.862,0,1c.75.138.862.25,1,1,.138-.75.25-.862,1-1C1.25.862,1.138.75,1,0Z" transform="translate(39.5 256.5)"/></g><g class="g" transform="matrix(1, 0, 0, 1, -13.5, -13.5)"><path class="a" d="M1.5,0C1.293,1.125,1.125,1.293,0,1.5c1.125.207,1.293.375,1.5,1.5.207-1.125.375-1.293,1.5-1.5C1.875,1.293,1.707,1.125,1.5,0Z" transform="translate(43.5 329.5)"/></g><g class="f" transform="matrix(1, 0, 0, 1, -13.5, -13.5)"><path class="a" d="M1.5,0C1.293,1.125,1.125,1.293,0,1.5c1.125.207,1.293.375,1.5,1.5.207-1.125.375-1.293,1.5-1.5C1.875,1.293,1.707,1.125,1.5,0Z" transform="translate(13.5 269.5)"/></g><g class="e" transform="matrix(1, 0, 0, 1, -13.5, -13.5)"><path class="a" d="M1,0C.862.75.75.862,0,1c.75.138.862.25,1,1,.138-.75.25-.862,1-1C1.25.862,1.138.75,1,0Z" transform="translate(30.5 335.5)"/></g><path class="b" d="M0,0A63.513,63.513,0,0,0,6.5,8.311c4.208,4.616,8.25,8.311,8.25,8.311" transform="translate(213 336)"/><g class="d" transform="matrix(1, 0, 0, 1, -13.5, -13.5)"><path class="c" d="M0,0A63.513,63.513,0,0,0,6.5,8.311c4.208,4.616,8.25,8.311,8.25,8.311" transform="translate(226.5 349.5)"/></g></g>
</svg>
