<?xml version="1.0" encoding="UTF-8"?>
<svg version="1.1" viewBox="0 0 129 129" xmlns="http://www.w3.org/2000/svg" xmlns:xlink="http://www.w3.org/1999/xlink">
<title>Group 5</title>
<desc>Created with Sketch.</desc>
<defs>
<linearGradient id="a" x1="34.839%" x2="79.208%" y1="15.974%" y2="90.71%">
<stop stop-color="#fff" stop-opacity=".4" offset="0"/>
<stop stop-color="#fff" stop-opacity=".2" offset="1"/>
</linearGradient>
<path id="d" d="m40.5 0c-22.364 0-40.5 18.136-40.5 40.5s18.136 40.5 40.5 40.5 40.5-18.136 40.5-40.5-18.136-40.5-40.5-40.5zm20.318 30.988v5.4838c-2.5858 9.492e-4 -5.0983-0.50578-7.4678-1.5055-1.5237-0.64325-2.9432-1.4721-4.2416-2.4737l0.038918 16.879c-0.016295 3.8008-1.52 7.3719-4.2416 10.062-2.2148 2.1895-5.0214 3.5819-8.0633 4.0326-0.71476 0.10584-1.4422 0.1601-2.1778 0.1601-3.2563 0-6.3477-1.0549-8.8766-3.0011-0.47588-0.3664-0.93103-0.76365-1.3643-1.1916-2.9495-2.9152-4.4705-6.8662-4.2144-11.023 0.19538-3.1639 1.4621-6.1813 3.5738-8.5463 2.7939-3.1296 6.7024-4.8666 10.882-4.8666 0.73564 0 1.4631 0.055213 2.1778 0.16105v2.0275 5.6403c-0.67774-0.22354-1.4015-0.34646-2.1552-0.34646-3.8181 0-6.907 3.115-6.8499 6.9359 0.036228 2.4447 1.3716 4.5817 3.3412 5.7597 0.92565 0.55371 1.9905 0.8967 3.1269 0.95903 0.89037 0.048885 1.7453-0.075146 2.5369-0.3365 2.7279-0.90112 4.6958-3.4634 4.6958-6.4854l0.0090176-11.303v-20.636h7.552c0.0072773 0.7483 0.083215 1.4784 0.22433 2.1859 0.57001 2.8636 2.1842 5.3481 4.4306 7.0418 1.9589 1.4775 4.398 2.3533 7.0418 2.3533 0.0017402 0 0.023572 0 0.021832-0.0017402v2.0347z"/>
<filter id="g" x="-46.3%" y="-46.3%" width="192.6%" height="192.6%">
<feOffset dx="0" dy="0" in="SourceAlpha" result="shadowOffsetOuter1"/>
<feGaussianBlur in="shadowOffsetOuter1" result="shadowBlurOuter1" stdDeviation="12.5"/>
<feColorMatrix in="shadowBlurOuter1" values="0 0 0 0 5.73679768e-05   0 0 0 0 0.00814402248   0 0 0 0 0.097118433  0 0 0 0.0562172203 0"/>
</filter>
<path id="c" d="m40.5 0c-22.364 0-40.5 18.136-40.5 40.5s18.136 40.5 40.5 40.5 40.5-18.136 40.5-40.5-18.136-40.5-40.5-40.5zm20.318 30.988v5.4838c-2.5858 9.492e-4 -5.0983-0.50578-7.4678-1.5055-1.5237-0.64325-2.9432-1.4721-4.2416-2.4737l0.038918 16.879c-0.016295 3.8008-1.52 7.3719-4.2416 10.062-2.2148 2.1895-5.0214 3.5819-8.0633 4.0326-0.71476 0.10584-1.4422 0.1601-2.1778 0.1601-3.2563 0-6.3477-1.0549-8.8766-3.0011-0.47588-0.3664-0.93103-0.76365-1.3643-1.1916-2.9495-2.9152-4.4705-6.8662-4.2144-11.023 0.19538-3.1639 1.4621-6.1813 3.5738-8.5463 2.7939-3.1296 6.7024-4.8666 10.882-4.8666 0.73564 0 1.4631 0.055213 2.1778 0.16105v2.0275 5.6403c-0.67774-0.22354-1.4015-0.34646-2.1552-0.34646-3.8181 0-6.907 3.115-6.8499 6.9359 0.036228 2.4447 1.3716 4.5817 3.3412 5.7597 0.92565 0.55371 1.9905 0.8967 3.1269 0.95903 0.89037 0.048885 1.7453-0.075146 2.5369-0.3365 2.7279-0.90112 4.6958-3.4634 4.6958-6.4854l0.0090176-11.303v-20.636h7.552c0.0072773 0.7483 0.083215 1.4784 0.22433 2.1859 0.57001 2.8636 2.1842 5.3481 4.4306 7.0418 1.9589 1.4775 4.398 2.3533 7.0418 2.3533 0.0017402 0 0.023572 0 0.021832-0.0017402v2.0347z"/>
<filter id="f" x="-46.3%" y="-46.3%" width="192.6%" height="192.6%">
<feOffset dx="0" dy="0" in="SourceAlpha" result="shadowOffsetOuter1"/>
<feGaussianBlur in="shadowOffsetOuter1" result="shadowBlurOuter1" stdDeviation="12.5"/>
<feColorMatrix in="shadowBlurOuter1" values="0 0 0 0 5.73679768e-05   0 0 0 0 0.00814402248   0 0 0 0 0.097118433  0 0 0 0.0562172203 0"/>
</filter>
<path id="b" d="m40.5 0c-22.364 0-40.5 18.136-40.5 40.5s18.136 40.5 40.5 40.5 40.5-18.136 40.5-40.5-18.136-40.5-40.5-40.5zm20.318 30.988v5.4838c-2.5858 9.492e-4 -5.0983-0.50578-7.4678-1.5055-1.5237-0.64325-2.9432-1.4721-4.2416-2.4737l0.038918 16.879c-0.016295 3.8008-1.52 7.3719-4.2416 10.062-2.2148 2.1895-5.0214 3.5819-8.0633 4.0326-0.71476 0.10584-1.4422 0.1601-2.1778 0.1601-3.2563 0-6.3477-1.0549-8.8766-3.0011-0.47588-0.3664-0.93103-0.76365-1.3643-1.1916-2.9495-2.9152-4.4705-6.8662-4.2144-11.023 0.19538-3.1639 1.4621-6.1813 3.5738-8.5463 2.7939-3.1296 6.7024-4.8666 10.882-4.8666 0.73564 0 1.4631 0.055213 2.1778 0.16105v2.0275 5.6403c-0.67774-0.22354-1.4015-0.34646-2.1552-0.34646-3.8181 0-6.907 3.115-6.8499 6.9359 0.036228 2.4447 1.3716 4.5817 3.3412 5.7597 0.92565 0.55371 1.9905 0.8967 3.1269 0.95903 0.89037 0.048885 1.7453-0.075146 2.5369-0.3365 2.7279-0.90112 4.6958-3.4634 4.6958-6.4854l0.0090176-11.303v-20.636h7.552c0.0072773 0.7483 0.083215 1.4784 0.22433 2.1859 0.57001 2.8636 2.1842 5.3481 4.4306 7.0418 1.9589 1.4775 4.398 2.3533 7.0418 2.3533 0.0017402 0 0.023572 0 0.021832-0.0017402v2.0347z"/>
<filter id="e" x="-46.3%" y="-46.3%" width="192.6%" height="192.6%">
<feOffset dx="0" dy="0" in="SourceAlpha" result="shadowOffsetOuter1"/>
<feGaussianBlur in="shadowOffsetOuter1" result="shadowBlurOuter1" stdDeviation="12.5"/>
<feColorMatrix in="shadowBlurOuter1" values="0 0 0 0 5.73679768e-05   0 0 0 0 0.00814402248   0 0 0 0 0.097118433  0 0 0 0.0562172203 0"/>
</filter>
</defs>
<g fill="none" fill-rule="evenodd">
<g transform="translate(-914 -1266)">
<g transform="translate(825 1290)">
<g transform="translate(113)">
<g id="tiktok">
<g id="Shape">
<use fill="black" filter="url(#g)" xlink:href="#d"/>
<use fill="url(#a)" fill-rule="evenodd" xlink:href="#d"/>
</g>
</g>
<g id="h">
<g id="i">
<use fill="black" filter="url(#f)" xlink:href="#c"/>
<use fill="url(#a)" fill-rule="evenodd" xlink:href="#c"/>
</g>
</g>
<use fill="black" filter="url(#e)" xlink:href="#b"/>
<use fill="url(#a)" fill-rule="evenodd" xlink:href="#b"/>
</g>
</g>
</g>
</g>
</svg>
