<svg xmlns="http://www.w3.org/2000/svg" xmlns:xlink="http://www.w3.org/1999/xlink" width="101" height="101" viewBox="0 0 101 101">
  <defs>
    <linearGradient id="linear-gradient" x1="0.348" y1="0.16" x2="0.792" y2="0.907" gradientUnits="objectBoundingBox">
      <stop offset="0" stop-color="#fff" stop-opacity="0.4"/>
      <stop offset="1" stop-color="#fff" stop-opacity="0.2"/>
    </linearGradient>
    <filter id="Shape" x="0" y="0" width="101" height="101" filterUnits="userSpaceOnUse">
      <feOffset input="SourceAlpha"/>
      <feGaussianBlur stdDeviation="12.5" result="blur"/>
      <feFlood flood-color="#000219" flood-opacity="0.055"/>
      <feComposite operator="in" in2="blur"/>
      <feComposite in="SourceGraphic"/>
    </filter>
    <filter id="Shape-2" x="0" y="0" width="101" height="101" filterUnits="userSpaceOnUse">
      <feOffset input="SourceAlpha"/>
      <feGaussianBlur stdDeviation="12.5" result="blur-2"/>
      <feFlood flood-color="#000219" flood-opacity="0.055"/>
      <feComposite operator="in" in2="blur-2"/>
      <feComposite in="SourceGraphic"/>
    </filter>
    <filter id="Shape-3" x="0" y="0" width="101" height="101" filterUnits="userSpaceOnUse">
      <feOffset input="SourceAlpha"/>
      <feGaussianBlur stdDeviation="12.5" result="blur-3"/>
      <feFlood flood-color="#000219" flood-opacity="0.055"/>
      <feComposite operator="in" in2="blur-3"/>
      <feComposite in="SourceGraphic"/>
    </filter>
  </defs>
  <g id="Tiktok" transform="translate(37.5 37.5)">
    <g id="tiktok-2" data-name="tiktok">
      <g transform="matrix(1, 0, 0, 1, -37.5, -37.5)" filter="url(#Shape)">
        <path id="Shape-4" data-name="Shape" d="M13,26A13,13,0,0,1,3.808,3.808,13,13,0,1,1,22.192,22.192,12.915,12.915,0,0,1,13,26ZM11.127,11.234A4.626,4.626,0,0,0,7.634,12.8a4.556,4.556,0,0,0,.206,6.281,4.761,4.761,0,0,0,.437.382,4.631,4.631,0,0,0,2.849.963,4.76,4.76,0,0,0,.7-.051,4.617,4.617,0,0,0,2.588-1.294,4.541,4.541,0,0,0,1.362-3.229l-.013-5.418a6.146,6.146,0,0,0,3.758,1.277V9.294h-.007a3.755,3.755,0,0,1-3.683-3.016,3.838,3.838,0,0,1-.072-.7H13.336V12.2l0,3.629a2.2,2.2,0,0,1-2.2,2.193q-.06,0-.121,0a2.21,2.21,0,0,1-1-.308,2.192,2.192,0,0,1,1.126-4.075,2.227,2.227,0,0,1,.692.111V11.286A4.766,4.766,0,0,0,11.127,11.234Z" transform="translate(37.5 37.5)" fill="url(#linear-gradient)"/>
      </g>
    </g>
    <g id="tiktok-3" data-name="tiktok">
      <g transform="matrix(1, 0, 0, 1, -37.5, -37.5)" filter="url(#Shape-2)">
        <path id="Shape-5" data-name="Shape" d="M13,26A13,13,0,0,1,3.808,3.808,13,13,0,1,1,22.192,22.192,12.915,12.915,0,0,1,13,26ZM11.127,11.234A4.626,4.626,0,0,0,7.634,12.8a4.556,4.556,0,0,0,.206,6.281,4.761,4.761,0,0,0,.437.382,4.631,4.631,0,0,0,2.849.963,4.76,4.76,0,0,0,.7-.051,4.617,4.617,0,0,0,2.588-1.294,4.541,4.541,0,0,0,1.362-3.229l-.013-5.418a6.146,6.146,0,0,0,3.758,1.277V9.294h-.007a3.755,3.755,0,0,1-3.683-3.016,3.838,3.838,0,0,1-.072-.7H13.336V12.2l0,3.629a2.2,2.2,0,0,1-2.2,2.193q-.06,0-.121,0a2.21,2.21,0,0,1-1-.308,2.192,2.192,0,0,1,1.126-4.075,2.227,2.227,0,0,1,.692.111V11.286A4.766,4.766,0,0,0,11.127,11.234Z" transform="translate(37.5 37.5)" fill="url(#linear-gradient)"/>
      </g>
    </g>
    <g id="tiktok-4" data-name="tiktok">
      <g transform="matrix(1, 0, 0, 1, -37.5, -37.5)" filter="url(#Shape-3)">
        <path id="Shape-6" data-name="Shape" d="M13,26A13,13,0,0,1,3.808,3.808,13,13,0,1,1,22.192,22.192,12.915,12.915,0,0,1,13,26ZM11.127,11.234A4.626,4.626,0,0,0,7.634,12.8a4.556,4.556,0,0,0,.206,6.281,4.761,4.761,0,0,0,.437.382,4.631,4.631,0,0,0,2.849.963,4.76,4.76,0,0,0,.7-.051,4.617,4.617,0,0,0,2.588-1.294,4.541,4.541,0,0,0,1.362-3.229l-.013-5.418a6.146,6.146,0,0,0,3.758,1.277V9.294h-.007a3.755,3.755,0,0,1-3.683-3.016,3.838,3.838,0,0,1-.072-.7H13.336V12.2l0,3.629a2.2,2.2,0,0,1-2.2,2.193q-.06,0-.121,0a2.21,2.21,0,0,1-1-.308,2.192,2.192,0,0,1,1.126-4.075,2.227,2.227,0,0,1,.692.111V11.286A4.766,4.766,0,0,0,11.127,11.234Z" transform="translate(37.5 37.5)" fill="url(#linear-gradient)"/>
      </g>
    </g>
  </g>
</svg>
