<?xml version="1.0" encoding="UTF-8"?>
<svg version="1.1" viewBox="0 0 39 39" xmlns="http://www.w3.org/2000/svg">
<title>video-player</title>
<desc>Created with Sketch.</desc>
<g fill="none" fill-rule="evenodd">
<g transform="translate(-292 -496)" fill="#000" fill-rule="nonzero">
<g transform="translate(210 410)">
<g transform="translate(82 86)">
<path id="b" d="m34.938 0h-30.875c-2.2425 0.002666-4.0598 1.82-4.0625 4.0625v30.875c0.002666 2.2426 1.82 4.0599 4.0625 4.0626h30.875c2.2426-0.002666 4.0598-1.82 4.0625-4.0625v-30.875c-0.0025898-2.2425-1.8199-4.0598-4.0624-4.0625zm2.4375 34.938c0 1.3462-1.0913 2.4375-2.4375 2.4375h-30.875c-1.3462 0-2.4375-1.0913-2.4375-2.4375v-30.875c0-1.3462 1.0913-2.4375 2.4375-2.4375h30.875c1.3462 0 2.4376 1.0913 2.4376 2.4375v30.875z"/>
<rect id="Rectangle" x="3" y="6" width="33" height="2"/>
<rect id="Rectangle" x="4" y="3" width="2" height="2"/>
<rect id="Rectangle" x="7" y="3" width="2" height="2"/>
<rect id="Rectangle" x="33" y="3" width="2" height="2"/>
<path d="m32.553 10h-26.105c-1.3516 0-2.4474 1.1096-2.4474 2.4783v16.522h1.6316v-16.522c0-0.45623 0.36527-0.82611 0.81582-0.82611h26.105c0.45055 0 0.81582 0.36988 0.81582 0.82611v16.522h1.6316v-16.522c0-1.3687-1.0957-2.4783-2.4473-2.4783z"/>
<rect id="Rectangle" x="4" y="31" width="2" height="2"/>
<rect id="Rectangle" x="7" y="31" width="2" height="2"/>
<rect id="Rectangle" x="33" y="31" width="2" height="2"/>
<rect id="a" x="11" y="31" width="21" height="2"/>
<rect x="15" y="30" width="2" height="5"/>
<path d="m22.608 20.307-5.4423-3.1994c-0.11866-0.070486-0.25328-0.10745-0.39024-0.10716-0.42938 9.016e-4 -0.77676 0.3597-0.77596 0.80144v6.3987c0 0.44174 0.34811 0.79987 0.77749 0.79987 0.1363 4.399e-4 0.27041-0.035928 0.38871-0.10559l5.4423-3.1994c0.12026-0.070786 0.21997-0.17337 0.28878-0.29709 0.2132-0.3834 0.083893-0.87207-0.28878-1.0914zm-5.0535 2.5147v-3.6416l3.0974 1.8212-3.0974 1.8204z"/>
</g>
</g>
</g>
</g>
</svg>
